<?xml version="1.0" encoding="UTF-8"?>
<svg id="Layer_1" data-name="Layer 1" xmlns="http://www.w3.org/2000/svg" viewBox="0 0 1920 1920">
  <defs>
    <style>
      .cls-1 {
        fill: #fd037a;
      }
    </style>
  </defs>
  <path class="cls-1" d="M848.75,363.15h354.1c50.39,0,100.83-1.37,151.15.61,79.7,3.13,156.26,19.79,223.16,66,66.58,46,103.61,110.94,115.21,190.52,9.17,63,.48,123.55-26.58,181.3-5.75,12.67-12.82,24.7-21.08,35.89-9.56,12.65-8.5,18.74,5.51,26.37,29.78,16.22,56.94,35.79,80.19,60.61,37.75,40.3,60.9,88.22,71,142,17.29,92.07,14.4,183.44-17.61,272.2-22.19,61.53-57.52,114.66-110.37,154.73-45,34.14-96.28,53-152.08,58.74-64.3,6.66-128.94,5-193.46,5-49.52,0-99.08-.09-148.54-2-64.26-2.45-122.16-22.57-169.55-67.81-37.7-36-59.32-80.61-69.17-131.33-3.93-20.27-5.34-40.76-5.33-61.39.06-127.49.06-254.98,0-382.47,0-21.15-.45-42.29-.41-63.44,0-22.32,7.24-29.39,29.72-29.31,27.82.1,55.64.63,83.47.59,52-.06,104.09-.64,156.13-.54,38.12.06,76.25.18,114.34,1.49,52,1.78,79.12-25,94.26-66.62,14.81-40.74,6.44-79.64-14.27-116.13-10.6-18.68-30.11-22.29-49.68-24.14-4.42-.42-8.9-.37-13.35-.37h-461.83c-38.1,0-76.19,1.38-114.29-.78-20.55-1.16-30.37,7.89-30.46,28.66-.21,46.18.54,92.37.89,138.56v6.68c.09,130.83.18,261.65.26,392.48,0,36.46.63,72.93-.1,109.38-2.58,129.17-76.83,224.92-201,259.85-11.5,3.25-23.19,5.79-35,7.61-9.65,1.47-9.64,1.63-9.64-8.43v-387.48c.09-126.67.27-253.31.56-379.94.1-42.57.71-85.14,1.09-127.7,0-2,.05-3.9,0-5.85-.68-25.95-9.39-34.74-35.35-33.88-33.67,1.11-67.34.67-101,.77-63.19.19-126.38.29-189.57.31-9.17,0-18.37.71-27.53.28-18.67-.88-25.06-7.51-24.39-26.11,1.04-32.89,9.15-65.18,23.77-94.66,40.51-81.51,107.18-124.22,197.46-129,41.91-2.23,84-1.16,126-1.22,101.05-.13,202.1-.13,303.15,0l90.22-.03ZM1336.51,1077.99v-.8h-125.22c-18.88,0-25.5,6.79-25.13,25.92,1.02,52.3,1.02,104.6,0,156.89-.41,20.23,5.65,26.55,26,26.5,49.54-.12,99.07-.57,148.61-.37,35.88.15,71.81,1.72,107.61-1.09,34.51-2.7,62.46-17.55,79.58-48.78,11.34-20.68,13.14-43.08,10.83-66.37-5.39-54.25-45.85-91.71-100.41-91.86-40.59-.13-81.23-.04-121.87-.04Z"/>
</svg>