<svg width="28" height="28" viewBox="0 0 28 28" fill="none" xmlns="http://www.w3.org/2000/svg">
<path d="M23.3236 2.33228H4.66471C3.37659 2.33228 2.33236 3.37651 2.33236 4.66463V9.32935C2.33236 10.6175 3.37659 11.6617 4.66471 11.6617H23.3236C24.6117 11.6617 25.6559 10.6175 25.6559 9.32935V4.66463C25.6559 3.37651 24.6117 2.33228 23.3236 2.33228Z" stroke="#E91E63" stroke-width="2" stroke-linecap="round" stroke-linejoin="round"/>
<path d="M23.3236 16.3264H4.66471C3.37659 16.3264 2.33236 17.3706 2.33236 18.6588V23.3235C2.33236 24.6116 3.37659 25.6558 4.66471 25.6558H23.3236C24.6117 25.6558 25.6559 24.6116 25.6559 23.3235V18.6588C25.6559 17.3706 24.6117 16.3264 23.3236 16.3264Z" stroke="#E91E63" stroke-width="2" stroke-linecap="round" stroke-linejoin="round"/>
<path d="M6.99707 6.99707H7.00873" stroke="#E91E63" stroke-width="2" stroke-linecap="round" stroke-linejoin="round"/>
<path d="M6.99707 20.9912H7.00873" stroke="#E91E63" stroke-width="2" stroke-linecap="round" stroke-linejoin="round"/>
</svg>
