<svg width="24" height="24" viewBox="0 0 24 24" fill="none" xmlns="http://www.w3.org/2000/svg">
<path d="M16.2294 7.75494L14.4266 13.1624C14.3285 13.4568 14.1632 13.7243 13.9437 13.9437C13.7243 14.1632 13.4568 14.3285 13.1624 14.4266L7.75494 16.2294L9.55777 10.8219C9.65589 10.5276 9.82121 10.2601 10.0406 10.0406C10.2601 9.82121 10.5276 9.65589 10.8219 9.55777L16.2294 7.75494Z" stroke="#E91E63" stroke-width="2" stroke-linecap="round" stroke-linejoin="round"/>
<path d="M11.9922 21.9857C17.5114 21.9857 21.9857 17.5114 21.9857 11.9922C21.9857 6.47293 17.5114 1.99869 11.9922 1.99869C6.47293 1.99869 1.99869 6.47293 1.99869 11.9922C1.99869 17.5114 6.47293 21.9857 11.9922 21.9857Z" stroke="#E91E63" stroke-width="2" stroke-linecap="round" stroke-linejoin="round"/>
</svg>
